<?xml version="1.0" encoding="UTF-8" standalone="no"?>
<!DOCTYPE svg PUBLIC "-//W3C//DTD SVG 1.1//EN" "http://www.w3.org/Graphics/SVG/1.1/DTD/svg11.dtd">
<svg width="100%" height="100%" viewBox="0 0 1350 649" version="1.1" xmlns="http://www.w3.org/2000/svg" xmlns:xlink="http://www.w3.org/1999/xlink" xml:space="preserve" xmlns:serif="http://www.serif.com/" style="fill-rule:evenodd;clip-rule:evenodd;stroke-linecap:round;stroke-linejoin:round;stroke-miterlimit:1.5;">
    <g transform="matrix(1,0,0,0.600127,0,0)">
        <rect id="Artboard1" x="0" y="0" width="1350" height="1080" style="fill:none;"/>
        <g id="Artboard11" serif:id="Artboard1">
            <g transform="matrix(0.598773,0,0,0.997743,-5.58799,19.2895)">
                <path d="M151.145,68.834L151.145,58.694L177.502,58.694L177.502,68.834L185.03,68.834L185.03,139.196L82.173,139.196L82.173,68.834L151.145,68.834Z" style="fill:rgb(235,235,235);stroke:black;stroke-width:1.67px;"/>
            </g>
            <g transform="matrix(1,0,0,1.66631,-64.3319,-28.5755)">
                <g transform="matrix(51.8214,0,0,51.8214,263.375,108.697)">
                </g>
                <text x="179.9px" y="108.697px" style="font-family:'Helvetica';font-size:51.821px;">/src</text>
            </g>
            <g transform="matrix(1,0,0,1.66631,-64.3319,189.921)">
                <g transform="matrix(51.8214,0,0,51.8214,384.376,108.697)">
                </g>
                <text x="179.9px" y="108.697px" style="font-family:'Helvetica';font-size:51.821px;">sketch.ts</text>
            </g>
            <g transform="matrix(1,0,0,1.66631,-64.3319,481.871)">
                <g transform="matrix(51.8214,0,0,51.8214,413.197,108.697)">
                </g>
                <text x="179.9px" y="108.697px" style="font-family:'Helvetica';font-size:51.821px;">sketch2.ts</text>
            </g>
            <g transform="matrix(1,0,0,1.66631,-64.3319,781.323)">
                <g transform="matrix(51.8214,0,0,51.8214,413.197,108.697)">
                </g>
                <text x="179.9px" y="108.697px" style="font-family:'Helvetica';font-size:51.821px;">sketch3.ts</text>
            </g>
            <g transform="matrix(1,0,0,1.27951,-38.5582,21.5607)">
                <path d="M108.138,107.32L108.138,721.972" style="fill:none;stroke:black;stroke-width:1.12px;"/>
            </g>
            <g transform="matrix(1,0,0,1.66631,-38.5582,-11.6196)">
                <path d="M108.654,218.034L152.176,218.034" style="fill:none;stroke:black;stroke-width:1px;"/>
            </g>
            <g transform="matrix(1,0,0,1.66631,-38.5582,282.613)">
                <path d="M108.654,218.034L152.176,218.034" style="fill:none;stroke:black;stroke-width:1px;"/>
            </g>
            <g transform="matrix(1,0,0,1.66631,-38.1534,582.016)">
                <path d="M108.654,218.034L152.176,218.034" style="fill:none;stroke:black;stroke-width:1px;"/>
            </g>
            <g transform="matrix(1,0,0,1.66631,0,0)">
                <path d="M374.677,185.377L433.228,185.377L433.228,578.628L374.677,578.628" style="fill:none;stroke:black;stroke-width:1px;"/>
            </g>
            <g transform="matrix(1,0,0,1.66631,0,0)">
                <path d="M829.387,374.502L844.387,382.002L829.387,389.502C833.137,385.752 833.137,378.252 829.387,374.502Z"/>
                <path d="M433.228,382.002L832.387,382.002" style="fill:none;stroke:black;stroke-width:1px;"/>
            </g>
            <g transform="matrix(1,0,0,1.66631,0,32.0419)">
                <rect x="844.387" y="264.978" width="340.439" height="195.59" style="fill:rgb(235,235,235);stroke:black;stroke-width:1px;"/>
            </g>
            <g transform="matrix(1,0,0,1.66631,716.692,485.685)">
                <g transform="matrix(51.8214,0,0,51.8214,416.081,108.697)">
                </g>
                <text x="179.9px" y="108.697px" style="font-family:'Helvetica';font-size:51.821px;">index.html</text>
            </g>
            <g transform="matrix(0.502592,0,0,0.837476,237.683,158.201)">
                <text x="501.262px" y="222.548px" style="font-family:'Helvetica';font-size:51.821px;">At compile time, all sketches</text>
                <text x="501.262px" y="274.369px" style="font-family:'Helvetica';font-size:51.821px;">in the src folder are indexed and</text>
                <g transform="matrix(51.8214,0,0,51.8214,1013.99,326.19)">
                </g>
                <text x="501.262px" y="326.19px" style="font-family:'Helvetica';font-size:51.821px;">linked to in index.html.</text>
            </g>
        </g>
    </g>
</svg>
