<?xml version="1.0" encoding="UTF-8" standalone="no"?>
<!DOCTYPE svg PUBLIC "-//W3C//DTD SVG 1.1//EN" "http://www.w3.org/Graphics/SVG/1.1/DTD/svg11.dtd">
<svg width="100%" height="100%" viewBox="0 0 260 260" version="1.1" xmlns="http://www.w3.org/2000/svg" xmlns:xlink="http://www.w3.org/1999/xlink" xml:space="preserve" xmlns:serif="http://www.serif.com/" style="fill-rule:evenodd;clip-rule:evenodd;stroke-linejoin:round;stroke-miterlimit:2;">
    <path d="M260,26.179C260,11.731 248.269,0 233.821,0L26.179,0C11.731,0 0,11.731 0,26.179L0,233.821C0,248.269 11.731,260 26.179,260L233.821,260C248.269,260 260,248.269 260,233.821L260,26.179Z" style="fill:white;"/>
    <g transform="matrix(-1.19052,0.591934,-0.591934,-1.19052,382.555,198.823)">
        <circle cx="147.044" cy="130.921" r="60.916" style="fill:url(#_Radial1);"/>
    </g>
    <g transform="matrix(0.772639,1.08201,-1.08201,0.772639,158.047,-130.258)">
        <circle cx="147.044" cy="130.921" r="60.916" style="fill:url(#_Linear2);"/>
    </g>
    <defs>
        <radialGradient id="_Radial1" cx="0" cy="0" r="1" gradientUnits="userSpaceOnUse" gradientTransform="matrix(121.833,0,0,121.833,86.1272,130.921)"><stop offset="0" style="stop-color:white;stop-opacity:0"/><stop offset="0.16" style="stop-color:rgb(164,226,196);stop-opacity:0.37"/><stop offset="0.3" style="stop-color:rgb(131,216,174);stop-opacity:0.5"/><stop offset="0.62" style="stop-color:rgb(96,205,151);stop-opacity:0.64"/><stop offset="1" style="stop-color:rgb(6,177,94);stop-opacity:1"/></radialGradient>
        <linearGradient id="_Linear2" x1="0" y1="0" x2="1" y2="0" gradientUnits="userSpaceOnUse" gradientTransform="matrix(121.833,0,0,121.833,86.1272,130.921)"><stop offset="0" style="stop-color:white;stop-opacity:0"/><stop offset="1" style="stop-color:rgb(0,155,255);stop-opacity:0.54"/></linearGradient>
    </defs>
</svg>
