<?xml version="1.0" encoding="UTF-8" standalone="no"?>
<!DOCTYPE svg PUBLIC "-//W3C//DTD SVG 1.1//EN" "http://www.w3.org/Graphics/SVG/1.1/DTD/svg11.dtd">
<svg width="100%" height="100%" viewBox="0 0 1080 1080" version="1.1" xmlns="http://www.w3.org/2000/svg" xmlns:xlink="http://www.w3.org/1999/xlink" xml:space="preserve" xmlns:serif="http://www.serif.com/" style="fill-rule:evenodd;clip-rule:evenodd;stroke-linecap:round;stroke-linejoin:round;stroke-miterlimit:1.5;">
    <g transform="matrix(1,0,0,1,-2.85267,-0.314593)">
        <rect x="71.399" y="71.48" width="248.896" height="248.896" style="fill:rgb(235,235,235);stroke:black;stroke-width:1px;"/>
    </g>
    <g transform="matrix(1,0,0,1,344.153,-0.314593)">
        <rect x="71.399" y="71.48" width="248.896" height="248.896" style="fill:rgb(235,235,235);stroke:black;stroke-width:1px;"/>
    </g>
    <g transform="matrix(1,0,0,1,691.159,-0.314593)">
        <rect x="71.399" y="71.48" width="248.896" height="248.896" style="fill:rgb(235,235,235);stroke:black;stroke-width:1px;"/>
    </g>
    <g transform="matrix(1,0,0,1,-2.85267,344.072)">
        <rect x="71.399" y="71.48" width="248.896" height="248.896" style="fill:rgb(235,235,235);stroke:black;stroke-width:1px;"/>
    </g>
    <g transform="matrix(1,0,0,1,344.153,344.072)">
        <rect x="71.399" y="71.48" width="248.896" height="248.896" style="stroke:black;stroke-width:1px;"/>
    </g>
    <g transform="matrix(1,0,0,1,691.159,344.072)">
        <rect x="71.399" y="71.48" width="248.896" height="248.896" style="fill:rgb(235,235,235);stroke:black;stroke-width:1px;"/>
    </g>
    <g transform="matrix(1,0,0,1,-2.85267,688.459)">
        <rect x="71.399" y="71.48" width="248.896" height="248.896" style="fill:rgb(235,235,235);stroke:black;stroke-width:1px;"/>
    </g>
    <g transform="matrix(1,0,0,1,344.153,688.459)">
        <rect x="71.399" y="71.48" width="248.896" height="248.896" style="fill:rgb(235,235,235);stroke:black;stroke-width:1px;"/>
    </g>
    <g transform="matrix(1,0,0,1,691.159,688.459)">
        <rect x="71.399" y="71.48" width="248.896" height="248.896" style="fill:rgb(235,235,235);stroke:black;stroke-width:1px;"/>
    </g>
    <g transform="matrix(1.00995,0,0,1.00995,20.2187,40.1532)">
        <g transform="matrix(49.4517,0,0,49.4517,443.45,512.304)">
            <path d="M0.078,-0.714L0.078,-0L0.173,-0L0.173,-0.25L0.292,-0.361L0.55,-0L0.67,-0L0.357,-0.426L0.658,-0.714L0.535,-0.714L0.173,-0.358L0.173,-0.714L0.078,-0.714Z" style="fill:white;fill-rule:nonzero;"/>
        </g>
        <g transform="matrix(49.4517,0,0,49.4517,476.434,512.304)">
            <path d="M0.423,-0.308L0.126,-0.308C0.127,-0.328 0.132,-0.347 0.139,-0.365C0.146,-0.382 0.156,-0.398 0.169,-0.411C0.182,-0.424 0.197,-0.435 0.215,-0.443C0.232,-0.45 0.252,-0.454 0.274,-0.454C0.295,-0.454 0.315,-0.45 0.333,-0.443C0.35,-0.435 0.366,-0.425 0.379,-0.412C0.392,-0.399 0.402,-0.383 0.41,-0.365C0.417,-0.347 0.422,-0.328 0.423,-0.308ZM0.505,-0.164L0.421,-0.164C0.414,-0.13 0.399,-0.105 0.376,-0.088C0.353,-0.071 0.323,-0.063 0.287,-0.063C0.259,-0.063 0.235,-0.068 0.214,-0.077C0.193,-0.086 0.176,-0.099 0.163,-0.115C0.15,-0.13 0.14,-0.148 0.134,-0.169C0.128,-0.189 0.125,-0.21 0.126,-0.233L0.513,-0.233C0.514,-0.264 0.511,-0.297 0.505,-0.332C0.498,-0.367 0.485,-0.399 0.467,-0.428C0.448,-0.457 0.424,-0.482 0.394,-0.501C0.363,-0.52 0.325,-0.529 0.279,-0.529C0.244,-0.529 0.211,-0.522 0.182,-0.509C0.152,-0.496 0.126,-0.477 0.105,-0.453C0.083,-0.429 0.066,-0.401 0.054,-0.368C0.042,-0.335 0.036,-0.299 0.036,-0.26C0.037,-0.221 0.043,-0.184 0.054,-0.151C0.064,-0.118 0.079,-0.089 0.1,-0.065C0.121,-0.041 0.146,-0.022 0.177,-0.009C0.207,0.004 0.243,0.011 0.284,0.011C0.343,0.011 0.391,-0.004 0.43,-0.033C0.469,-0.062 0.494,-0.106 0.505,-0.164Z" style="fill:white;fill-rule:nonzero;"/>
        </g>
        <g transform="matrix(49.4517,0,0,49.4517,502.99,512.304)">
            <path d="M0.061,-0.517L0.061,-0L0.146,-0L0.146,-0.23C0.146,-0.263 0.149,-0.293 0.156,-0.319C0.163,-0.344 0.173,-0.366 0.188,-0.384C0.203,-0.402 0.222,-0.416 0.246,-0.425C0.27,-0.434 0.299,-0.439 0.333,-0.439L0.333,-0.529C0.287,-0.53 0.249,-0.521 0.219,-0.501C0.189,-0.481 0.164,-0.45 0.143,-0.408L0.141,-0.408L0.141,-0.517L0.061,-0.517Z" style="fill:white;fill-rule:nonzero;"/>
        </g>
        <g transform="matrix(49.4517,0,0,49.4517,520.347,512.304)">
            <path d="M0.064,-0.517L0.064,-0L0.149,-0L0.149,-0.292C0.149,-0.315 0.152,-0.337 0.159,-0.357C0.165,-0.376 0.174,-0.393 0.187,-0.408C0.2,-0.423 0.216,-0.434 0.235,-0.442C0.254,-0.45 0.276,-0.454 0.302,-0.454C0.335,-0.454 0.36,-0.445 0.379,-0.426C0.398,-0.407 0.407,-0.382 0.407,-0.35L0.407,-0L0.492,-0L0.492,-0.34C0.492,-0.368 0.489,-0.393 0.484,-0.417C0.478,-0.44 0.468,-0.459 0.454,-0.476C0.44,-0.493 0.422,-0.506 0.399,-0.515C0.376,-0.524 0.348,-0.529 0.314,-0.529C0.237,-0.529 0.181,-0.498 0.146,-0.435L0.144,-0.435L0.144,-0.517L0.064,-0.517Z" style="fill:white;fill-rule:nonzero;"/>
        </g>
        <g transform="matrix(49.4517,0,0,49.4517,547.842,512.304)">
            <path d="M0.423,-0.308L0.126,-0.308C0.127,-0.328 0.132,-0.347 0.139,-0.365C0.146,-0.382 0.156,-0.398 0.169,-0.411C0.182,-0.424 0.197,-0.435 0.215,-0.443C0.232,-0.45 0.252,-0.454 0.274,-0.454C0.295,-0.454 0.315,-0.45 0.333,-0.443C0.35,-0.435 0.366,-0.425 0.379,-0.412C0.392,-0.399 0.402,-0.383 0.41,-0.365C0.417,-0.347 0.422,-0.328 0.423,-0.308ZM0.505,-0.164L0.421,-0.164C0.414,-0.13 0.399,-0.105 0.376,-0.088C0.353,-0.071 0.323,-0.063 0.287,-0.063C0.259,-0.063 0.235,-0.068 0.214,-0.077C0.193,-0.086 0.176,-0.099 0.163,-0.115C0.15,-0.13 0.14,-0.148 0.134,-0.169C0.128,-0.189 0.125,-0.21 0.126,-0.233L0.513,-0.233C0.514,-0.264 0.511,-0.297 0.505,-0.332C0.498,-0.367 0.485,-0.399 0.467,-0.428C0.448,-0.457 0.424,-0.482 0.394,-0.501C0.363,-0.52 0.325,-0.529 0.279,-0.529C0.244,-0.529 0.211,-0.522 0.182,-0.509C0.152,-0.496 0.126,-0.477 0.105,-0.453C0.083,-0.429 0.066,-0.401 0.054,-0.368C0.042,-0.335 0.036,-0.299 0.036,-0.26C0.037,-0.221 0.043,-0.184 0.054,-0.151C0.064,-0.118 0.079,-0.089 0.1,-0.065C0.121,-0.041 0.146,-0.022 0.177,-0.009C0.207,0.004 0.243,0.011 0.284,0.011C0.343,0.011 0.391,-0.004 0.43,-0.033C0.469,-0.062 0.494,-0.106 0.505,-0.164Z" style="fill:white;fill-rule:nonzero;"/>
        </g>
        <g transform="matrix(49.4517,0,0,49.4517,574.398,512.304)">
            <rect x="0.069" y="-0.714" width="0.085" height="0.714" style="fill:white;fill-rule:nonzero;"/>
        </g>
    </g>
    <g transform="matrix(1,0,0,0.63864,0,319.582)">
        <g transform="matrix(1,-0,-0,1.56583,0,-500.411)">
            <path d="M200.494,869.387L192.994,884.387L185.494,869.387L200.494,869.387Z"/>
            <path d="M192.994,664.448L192.994,872.387" style="fill:none;stroke:black;stroke-width:1px;"/>
        </g>
    </g>
    <g transform="matrix(1,0,0,1,347.006,-1.13687e-13)">
        <g transform="matrix(1,-0,-0,1,-347.006,1.13687e-13)">
            <path d="M547.5,869.387L540,884.387L532.5,869.387L547.5,869.387Z"/>
            <path d="M540,540L540,872.387" style="fill:none;stroke:black;stroke-width:1px;"/>
        </g>
    </g>
    <g transform="matrix(1,0,0,0.63864,-5.68434e-14,-24.8045)">
        <g transform="matrix(1,-0,-0,1.56583,5.68434e-14,38.8396)">
            <path d="M200.494,525L192.994,540L185.494,525L200.494,525Z"/>
            <path d="M192.994,320.061L192.994,528" style="fill:none;stroke:black;stroke-width:1px;"/>
        </g>
    </g>
    <g transform="matrix(1,0,0,0.63864,694.012,319.582)">
        <g transform="matrix(1,-0,-0,1.56583,-694.012,-500.411)">
            <path d="M894.506,869.387L887.006,884.387L879.506,869.387L894.506,869.387Z"/>
            <path d="M887.006,664.448L887.006,872.387" style="fill:none;stroke:black;stroke-width:1px;"/>
        </g>
    </g>
    <g transform="matrix(1,0,0,0.63864,694.012,-24.8045)">
        <g transform="matrix(1,-0,-0,1.56583,-694.012,38.8396)">
            <path d="M894.506,525L887.006,540L879.506,525L894.506,525Z"/>
            <path d="M887.006,320.061L887.006,528" style="fill:none;stroke:black;stroke-width:1px;"/>
        </g>
    </g>
    <path d="M547.5,180.613L540,195.613L532.5,180.613L547.5,180.613Z"/>
    <path d="M540,1008.84L540,1043.31L363.48,1043.31L363.48,36.387L540,36.387L540,183.613" style="fill:none;stroke:black;stroke-width:1px;"/>
    <g transform="matrix(1,0,0,1,-347.006,0.150264)">
        <g transform="matrix(1,-0,-0,1,347.006,-0.150264)">
            <path d="M200.494,180.763L192.994,195.763L185.494,180.763L200.494,180.763Z"/>
            <path d="M192.994,1008.99L192.994,1043.46L16.474,1043.46L16.474,36.537L192.994,36.537L192.994,183.763" style="fill:none;stroke:black;stroke-width:1px;"/>
        </g>
    </g>
    <g transform="matrix(1,0,0,1,347.006,0.150264)">
        <g transform="matrix(1,-0,-0,1,-347.006,-0.150264)">
            <path d="M894.506,180.763L887.006,195.763L879.506,180.763L894.506,180.763Z"/>
            <path d="M887.006,1008.99L887.006,1043.46L710.486,1043.46L710.486,36.537L887.006,36.537L887.006,183.763" style="fill:none;stroke:black;stroke-width:1px;"/>
        </g>
    </g>
</svg>
